<svg width="3431" height="650" xmlns="http://www.w3.org/2000/svg" xmlns:xlink="http://www.w3.org/1999/xlink" xml:space="preserve" overflow="hidden"><defs><clipPath id="clip0"><rect x="261" y="1174" width="3431" height="650"/></clipPath></defs><g clip-path="url(#clip0)" transform="translate(-261 -1174)"><path d="M487.97 1352.9 346.079 1498.53 439.545 1593.19 396.262 1637 261 1501.78 588.74 1174 724.001 1309.22 488.24 1547.62 439.411 1498.53 535.717 1402.25Z" fill="#F1C236" fill-rule="evenodd"/><path d="M449 1688.45 683.687 1450.19 731.759 1498.47 637.236 1594.88 684.496 1643.7 825.741 1498.47 732.839 1403.81 774.969 1360 910.001 1495.22 583.358 1823Z" fill="#F1C236" fill-rule="evenodd"/><path d="M1138.33 1561.95C1122.31 1562.48 1106.43 1558.76 1092.32 1551.15 1079.95 1543.89 1070.21 1532.87 1064.52 1519.69 1057.69 1503.59 1054.11 1486.29 1054 1468.79L1101.76 1459.34C1102.14 1469.9 1103.59 1480.39 1106.08 1490.66 1107.79 1498.57 1111.56 1505.88 1117.01 1511.86 1122.23 1516.83 1129.23 1519.51 1136.44 1519.29 1143.79 1520.04 1151.02 1516.99 1155.6 1511.19 1159.57 1505.05 1161.54 1497.83 1161.26 1490.53 1161.72 1478.96 1158.56 1467.54 1152.22 1457.86 1145.33 1448.37 1137.26 1439.8 1128.21 1432.34L1089.75 1398.32C1079.38 1389.58 1070.66 1379.07 1063.98 1367.26 1057.12 1354.22 1053.78 1339.6 1054.27 1324.87 1052.84 1304 1060.57 1283.54 1075.45 1268.84 1091.36 1255.02 1112.03 1247.95 1133.06 1249.13 1145.29 1248.65 1157.47 1250.77 1168.82 1255.34 1177.89 1259.37 1185.74 1265.7 1191.62 1273.7 1197.46 1281.85 1201.76 1291 1204.3 1300.7 1207.07 1310.99 1208.83 1321.53 1209.56 1332.16L1162.07 1340.4C1161.65 1331.77 1160.57 1323.2 1158.83 1314.74 1157.69 1308.15 1154.7 1302.01 1150.2 1297.06 1145.27 1292.5 1138.67 1290.2 1131.99 1290.71 1124.72 1290.24 1117.66 1293.24 1112.96 1298.81 1108.42 1304.51 1106.07 1311.65 1106.35 1318.93 1105.94 1327.83 1108.15 1336.65 1112.69 1344.31 1117.87 1352.02 1124.09 1358.97 1131.18 1364.97L1169.22 1398.45C1181.85 1409.06 1192.73 1421.59 1201.47 1435.58 1210.8 1451.08 1215.48 1468.93 1214.96 1487.02 1215.06 1500.42 1211.71 1513.62 1205.25 1525.36 1198.94 1536.7 1189.6 1546.05 1178.26 1552.36 1166 1558.94 1152.24 1562.24 1138.33 1561.95Z" fill="#2F637F" fill-rule="evenodd"/><path d="M1328.09 1561.86C1310.08 1562.75 1292.18 1558.54 1276.46 1549.71 1263.79 1541.58 1254.26 1529.4 1249.42 1515.16 1243.46 1497.8 1240.62 1479.52 1241.04 1461.17L1241.04 1347.39C1240.65 1329.4 1243.48 1311.48 1249.42 1294.49 1254.32 1280.49 1263.86 1268.59 1276.46 1260.74 1309.33 1245.08 1347.53 1245.08 1380.41 1260.74 1392.94 1268.67 1402.45 1280.55 1407.44 1294.49 1413.5 1311.46 1416.38 1329.39 1415.96 1347.39L1415.96 1461.98C1416.36 1479.99 1413.47 1497.92 1407.44 1514.89 1402.48 1529.1 1392.98 1541.28 1380.41 1549.58 1364.51 1558.59 1346.35 1562.85 1328.09 1561.86ZM1328.09 1520.69C1335.45 1521.37 1342.79 1519.25 1348.64 1514.76 1353.29 1510.35 1356.42 1504.59 1357.56 1498.29 1359.12 1490.74 1359.9 1483.05 1359.86 1475.35L1359.86 1334.57C1359.92 1326.86 1359.15 1319.17 1357.56 1311.63 1356.35 1305.55 1353.23 1300.01 1348.64 1295.84 1336.24 1288.09 1320.49 1288.09 1308.09 1295.84 1303.41 1300.07 1300.23 1305.71 1299.03 1311.9 1297.45 1319.44 1296.68 1327.13 1296.73 1334.84L1296.73 1475.21C1296.72 1482.91 1297.45 1490.59 1298.9 1498.15 1299.91 1504.51 1303 1510.34 1307.68 1514.76 1313.53 1519.17 1320.79 1521.28 1328.09 1520.69Z" fill="#2F637F" fill-rule="evenodd"/><path d="M1456 1558 1456 1252 1582 1252 1582 1290.44 1511.95 1290.44 1511.95 1379.62 1569.13 1379.62 1569.13 1418.6 1511.95 1418.6 1511.95 1558Z" fill="#2F637F" fill-rule="evenodd"/><path d="M1640.64 1558 1640.64 1293.54 1591 1293.54 1591 1253 1744 1253 1744 1293.54 1695.98 1293.54 1695.98 1558Z" fill="#2F637F" fill-rule="evenodd"/><path d="M1801.4 1558 1758 1252 1804.78 1252 1829.8 1450.27 1861.44 1252.68 1899.57 1252.68 1932.02 1450.27 1957.03 1252 2003 1252 1960.68 1558 1915.39 1558 1881.45 1352.83 1847.78 1558Z" fill="#2F637F" fill-rule="evenodd"/><path d="M2011 1558 2072.25 1252 2131.88 1252 2193 1558 2140.94 1558 2128.77 1487.35 2075.5 1487.35 2063.06 1558ZM2081.58 1451.89 2123.09 1451.89 2102.41 1323.32Z" fill="#2F637F" fill-rule="evenodd"/><path d="M2220 1558 2220 1252.04 2293.53 1252.04C2311.31 1251.63 2329.04 1254.1 2346.03 1259.35 2359.53 1263.64 2371.06 1272.56 2378.59 1284.52 2386.77 1299.26 2390.62 1316.01 2389.71 1332.83 2389.85 1344.02 2388.71 1355.19 2386.32 1366.12 2384.35 1375.2 2380.42 1383.75 2374.79 1391.15 2368.89 1398.46 2361.1 1404.03 2352.27 1407.26L2395 1558 2338.97 1558 2301.8 1417.27 2276.57 1417.27 2276.57 1558ZM2276.57 1382.76 2294.07 1382.76C2302.96 1383.13 2311.8 1381.51 2319.98 1378.03 2326.3 1374.92 2331.17 1369.49 2333.55 1362.87 2336.69 1354.21 2338.12 1345.02 2337.75 1335.81 2338.62 1323.69 2335.62 1311.62 2329.21 1301.3 2320.85 1292.54 2308.8 1288.27 2296.78 1289.8L2276.57 1289.8Z" fill="#2F637F" fill-rule="evenodd"/><path d="M2429 1558 2429 1252 2557.33 1252 2557.33 1291.25 2484.79 1291.25 2484.79 1379.22 2541.79 1379.22 2541.79 1418.2 2484.79 1418.2 2484.79 1519.43 2558 1519.43 2558 1558Z" fill="#2F637F" fill-rule="evenodd"/><path d="M2662 1558 2723.41 1252 2783.32 1252 2845 1558 2793.1 1558 2781.01 1487.35 2727.48 1487.35 2714.98 1558ZM2732.92 1451.89 2774.63 1451.89 2753.7 1323.32Z" fill="#2F637F" fill-rule="evenodd"/><path d="M2872 1558 2872 1252 2910.74 1252 2984.97 1426.45 2984.97 1252 3031 1252 3031 1558 2993.48 1558 2918.97 1375.16 2918.97 1558Z" fill="#2F637F" fill-rule="evenodd"/><path d="M3105.66 1558 3105.66 1293.54 3057 1293.54 3057 1253 3210 1253 3210 1293.54 3162.02 1293.54 3162.02 1558Z" fill="#2F637F" fill-rule="evenodd"/><path d="M3237 1558 3237 1252 3291 1252 3291 1558Z" fill="#2F637F" fill-rule="evenodd"/><path d="M3418.34 1561.87C3399.82 1562.8 3381.45 1558.08 3365.68 1548.37 3352.83 1539.74 3343.29 1527.03 3338.6 1512.31 3333.3 1495.32 3330.74 1477.59 3331.02 1459.79L3331.02 1351.09C3330.73 1332.8 3333.28 1314.58 3338.6 1297.08 3343.13 1282.45 3352.72 1269.91 3365.68 1261.7 3381.64 1252.5 3399.93 1248.13 3418.34 1249.14 3435.57 1248.24 3452.72 1251.97 3468.02 1259.95 3479.8 1266.85 3488.8 1277.65 3493.47 1290.46 3498.77 1305.32 3501.34 1321.01 3501.05 1336.78L3501.05 1362.43 3446.9 1362.43 3446.9 1336.24C3446.97 1328.43 3446.51 1320.62 3445.55 1312.88 3445.41 1306.63 3443.22 1300.61 3439.32 1295.73 3433.72 1291.02 3426.44 1288.78 3419.15 1289.52 3411.54 1288.82 3403.99 1291.21 3398.17 1296.13 3393.47 1300.94 3390.47 1307.16 3389.64 1313.82 3388.33 1322.13 3387.69 1330.53 3387.74 1338.94L3387.74 1471.27C3387.6 1480.34 3388.5 1489.4 3390.45 1498.27 3391.74 1504.6 3395.12 1510.31 3400.06 1514.47 3405.63 1518.39 3412.36 1520.29 3419.15 1519.88 3426.41 1520.61 3433.64 1518.26 3439.05 1513.39 3443.15 1508.38 3445.7 1502.28 3446.36 1495.84 3447.39 1487.69 3447.88 1479.48 3447.85 1471.27L3447.85 1444.26 3502 1444.26 3502 1468.84C3501.85 1485.31 3498.97 1501.64 3493.47 1517.17 3488.96 1530.6 3480.11 1542.14 3468.29 1549.99 3453.14 1558.68 3435.79 1562.81 3418.34 1561.87Z" fill="#2F637F" fill-rule="evenodd"/><path d="M3615.68 1561.94C3599.65 1562.47 3583.76 1558.75 3569.64 1551.14 3557.26 1543.88 3547.52 1532.86 3541.82 1519.68 3534.98 1503.58 3531.4 1486.28 3531.29 1468.78L3579.09 1459.33C3579.47 1469.89 3580.91 1480.39 3583.41 1490.66 3585.16 1498.47 3588.93 1505.68 3594.35 1511.58 3599.57 1516.56 3606.58 1519.23 3613.79 1519.01 3621.15 1519.77 3628.38 1516.71 3632.96 1510.91 3636.93 1504.77 3638.91 1497.56 3638.63 1490.25 3638.91 1478.73 3635.61 1467.41 3629.18 1457.85 3622.28 1448.36 3614.21 1439.79 3605.15 1432.33L3566.67 1398.31C3556.28 1389.58 3547.56 1379.06 3540.88 1367.26 3534.01 1354.21 3530.66 1339.6 3531.16 1324.87 3529.78 1304 3537.52 1283.57 3552.35 1268.84 3568.27 1255.02 3588.96 1247.95 3610.01 1249.13 3622.27 1248.78 3634.46 1251.04 3645.79 1255.74 3654.86 1259.77 3662.72 1266.1 3668.6 1274.1 3674.45 1282.25 3678.74 1291.41 3681.3 1301.1 3684.06 1311.4 3685.83 1321.93 3686.56 1332.56L3639.03 1340.8C3638.62 1332.18 3637.54 1323.6 3635.79 1315.15 3634.65 1308.55 3631.65 1302.41 3627.15 1297.46 3622.23 1292.91 3615.62 1290.61 3608.93 1291.12 3601.65 1290.64 3594.59 1293.65 3589.89 1299.22 3585.34 1304.91 3582.99 1312.05 3583.27 1319.33 3582.94 1328.22 3585.14 1337.03 3589.62 1344.71 3594.8 1352.42 3601.03 1359.37 3608.12 1365.37L3646.19 1398.85C3658.82 1409.46 3669.71 1421.99 3678.46 1435.98 3687.79 1451.48 3692.47 1469.33 3691.96 1487.42 3692.19 1500.99 3688.88 1514.39 3682.38 1526.3 3676.07 1537.64 3666.71 1546.99 3655.37 1553.3 3643.09 1559.5 3629.42 1562.48 3615.68 1561.94Z" fill="#2F637F" fill-rule="evenodd"/><path d="M1074.91 1621 1101.96 1621 1124 1750 1103.71 1750 1099.79 1727.21 1076.4 1727.21 1072.74 1750 1053 1750ZM1079.1 1708.9 1097.76 1708.9 1088.43 1643.52Z" fill="#F1C236" fill-rule="evenodd"/><path d="M1190 1750 1190 1622 1210.11 1622 1210.11 1730.87 1243 1730.87 1243 1750Z" fill="#F1C236" fill-rule="evenodd"/><path d="M1307 1750 1307 1622 1327.11 1622 1327.11 1730.87 1360 1730.87 1360 1750Z" fill="#F1C236" fill-rule="evenodd"/><path d="M1540.97 1641.27 1540.97 1750 1520.89 1750 1520.89 1641.27 1500 1641.27 1500 1622 1562 1622 1562 1641.27Z" fill="#F1C236" fill-rule="evenodd"/><path d="M1626 1750 1626 1622 1646.07 1622 1646.07 1675.9 1669.93 1675.9 1669.93 1622 1690 1622 1690 1750 1669.93 1750 1669.93 1695.16 1646.07 1695.16 1646.07 1750Z" fill="#F1C236" fill-rule="evenodd"/><path d="M1763 1750 1763 1622 1783 1622 1783 1750Z" fill="#F1C236" fill-rule="evenodd"/><path d="M1857 1750 1857 1622 1882.26 1622 1905.47 1704.19 1904.79 1622 1925 1622 1925 1750 1901.24 1750 1876.25 1665.79 1876.25 1750Z" fill="#F1C236" fill-rule="evenodd"/><path d="M2021.19 1680.99 2052.86 1680.99 2052.86 1716.89C2052.85 1721.43 2052.39 1725.97 2051.51 1730.43 2050.68 1734.39 2049.02 1738.13 2046.66 1741.4 2044.25 1744.77 2041 1747.44 2037.23 1749.13 2032.43 1751.2 2027.23 1752.17 2022 1751.97L2022 1751.97C2016.67 1752.19 2011.36 1751.18 2006.5 1748.99 2002.7 1747.3 1999.42 1744.58 1997.06 1741.13 1994.68 1737.68 1993.08 1733.75 1992.35 1729.62 1991.5 1725.15 1991.05 1720.62 1991 1716.07L1991 1655.79C1991.05 1651.25 1991.5 1646.71 1992.35 1642.25 1993.09 1638.09 1994.75 1634.16 1997.2 1630.73 1999.6 1627.32 2002.86 1624.61 2006.63 1622.87 2011.48 1620.81 2016.73 1619.84 2022 1620.03L2022 1620.03C2027.32 1619.81 2032.63 1620.83 2037.5 1623.01 2041.24 1624.74 2044.49 1627.39 2046.93 1630.73 2049.27 1634.1 2050.89 1637.93 2051.65 1641.98 2052.6 1646.43 2053.06 1650.97 2052.99 1655.52L2052.99 1662.97 2033.05 1662.97 2033.05 1655.66C2033.18 1653.76 2033.18 1651.86 2033.05 1649.97 2032.79 1648.19 2032.29 1646.46 2031.57 1644.82 2030.81 1643.34 2029.64 1642.12 2028.2 1641.3 2026.44 1640.28 2024.42 1639.81 2022.4 1639.94 2020.38 1639.82 2018.37 1640.3 2016.61 1641.3 2015.19 1642.22 2014.06 1643.54 2013.37 1645.09 2012.51 1646.77 2012 1648.62 2011.89 1650.51 2011.74 1652.63 2011.74 1654.76 2011.89 1656.88L2011.89 1716.48C2011.89 1718.51 2011.89 1720.54 2011.89 1722.58 2012.07 1724.46 2012.56 1726.29 2013.37 1727.99 2015 1731.53 2018.68 1733.64 2022.54 1733.28 2024.49 1733.35 2026.44 1732.93 2028.2 1732.06 2029.61 1731.2 2030.77 1729.99 2031.57 1728.54 2032.32 1727 2032.82 1725.36 2033.05 1723.66 2033.25 1721.72 2033.25 1719.77 2033.05 1717.83L2033.05 1700.22 2021.32 1700.22Z" fill="#F1C236" fill-rule="evenodd"/><path d="M2181.96 1718.66C2181.95 1723.23 2181.36 1727.77 2180.21 1732.19 2179.11 1736 2177.18 1739.52 2174.52 1742.47 2171.91 1745.37 2168.61 1747.55 2164.92 1748.82 2160.56 1750.31 2155.99 1751.04 2151.39 1750.99 2146.19 1751.11 2141.03 1750.33 2136.1 1748.69 2132.41 1747.37 2129.09 1745.14 2126.5 1742.2 2123.98 1739.15 2122.26 1735.52 2121.49 1731.65 2120.46 1726.94 2119.96 1722.13 2120 1717.31L2120 1708.52 2140.03 1708.52 2140.03 1717.18C2139.88 1719.25 2139.88 1721.33 2140.03 1723.4 2140.19 1725.05 2140.65 1726.65 2141.38 1728.13 2142.26 1729.31 2143.42 1730.24 2144.76 1730.84 2146.55 1731.44 2148.43 1731.72 2150.31 1731.65 2152.16 1731.71 2154 1731.38 2155.72 1730.7 2157.1 1730.1 2158.26 1729.11 2159.1 1727.86 2160.05 1726.58 2160.7 1725.1 2160.99 1723.53 2161.21 1721.74 2161.21 1719.92 2160.99 1718.12L2160.99 1717.18C2161.14 1714.97 2161.14 1712.76 2160.99 1710.55 2160.79 1708.72 2160.29 1706.94 2159.51 1705.27 2158.82 1703.68 2157.86 1702.21 2156.67 1700.95 2155.29 1699.47 2153.74 1698.16 2152.07 1697.02L2139.89 1689.18C2136.21 1686.91 2132.76 1684.29 2129.61 1681.34 2127.23 1679 2125.21 1676.31 2123.65 1673.36 2122.25 1670.56 2121.33 1667.54 2120.95 1664.43 2120.38 1660.72 2120.1 1656.96 2120.14 1653.2L2120.14 1650.91C2119.41 1642.09 2122.29 1633.35 2128.12 1626.7 2134.42 1621.23 2142.66 1618.51 2150.98 1619.12 2159.4 1618.35 2167.73 1621.26 2173.85 1627.1 2179.22 1633.98 2181.82 1642.61 2181.15 1651.31L2181.15 1661.45 2161.13 1661.45 2161.13 1650.23C2161.35 1648.61 2161.35 1646.98 2161.13 1645.36 2160.79 1644.04 2160.2 1642.8 2159.37 1641.71 2158.53 1640.61 2157.41 1639.77 2156.12 1639.27 2154.62 1638.68 2153.01 1638.41 2151.39 1638.46 2149.67 1638.39 2147.95 1638.72 2146.38 1639.41 2145.07 1640 2143.96 1640.94 2143.14 1642.11 2142.24 1643.61 2141.65 1645.26 2141.38 1646.98 2141.11 1648.78 2141.11 1650.6 2141.38 1652.39L2141.38 1654.83C2141.5 1658.12 2142.33 1661.35 2143.81 1664.29 2145.42 1667.31 2147.87 1669.79 2150.85 1671.46L2161.67 1677.96C2165.34 1680.01 2168.71 1682.56 2171.68 1685.53 2176.73 1690.37 2180.13 1696.65 2181.42 1703.52 2181.9 1707.19 2182.09 1710.9 2181.96 1714.61Z" fill="#F1C236" fill-rule="evenodd"/><path d="M2365.37 1622.02C2370.57 1621.84 2375.75 1622.8 2380.55 1624.84 2384.27 1626.52 2387.47 1629.17 2389.82 1632.51 2392.17 1635.9 2393.82 1639.74 2394.66 1643.8 2395.5 1648.23 2395.96 1652.72 2396 1657.24L2396 1714.76C2395.96 1719.27 2395.52 1723.77 2394.66 1728.2 2393.85 1732.3 2392.2 1736.19 2389.82 1739.62 2387.37 1742.89 2384.14 1745.48 2380.41 1747.15 2375.58 1749.22 2370.35 1750.18 2365.1 1749.97L2335 1749.97 2335 1622.02ZM2365.37 1730.49C2368.76 1730.72 2371.98 1728.93 2373.56 1725.92 2375.31 1722.23 2376.09 1718.16 2375.85 1714.09L2375.85 1657.64C2375.99 1655.45 2375.99 1653.25 2375.85 1651.05 2375.55 1649.26 2374.96 1647.54 2374.1 1645.95 2373.36 1644.55 2372.23 1643.39 2370.88 1642.59 2369.3 1641.74 2367.56 1641.29 2365.77 1641.24L2355.02 1641.24 2355.02 1730.49Z" fill="#F1C236" fill-rule="evenodd"/><path d="M2466 1750 2466 1622 2520 1622 2520 1641.27 2485.85 1641.27 2485.85 1675.22 2514.19 1675.22 2514.19 1694.49 2485.85 1694.49 2485.85 1730.73 2520 1730.73 2520 1750Z" fill="#F1C236" fill-rule="evenodd"/><path d="M2650 1621 2628.32 1750 2601.22 1750 2579 1621 2599.19 1621 2614.77 1728.3 2630.35 1621.41Z" fill="#F1C236" fill-rule="evenodd"/><path d="M2712 1750 2712 1622 2766.73 1622 2766.73 1641.27 2732.25 1641.27 2732.25 1675.22 2761.12 1675.22 2761.12 1694.49 2732.25 1694.49 2732.25 1730.73 2767 1730.73 2767 1750Z" fill="#F1C236" fill-rule="evenodd"/><path d="M2835 1750 2835 1622 2854.73 1622 2854.73 1730.87 2887 1730.87 2887 1750Z" fill="#F1C236" fill-rule="evenodd"/><path d="M2978.57 1620.02 2978.57 1620.02C2983.98 1619.83 2989.36 1620.8 2994.35 1622.88 2998.18 1624.66 3001.48 1627.37 3003.96 1630.76 3006.27 1634.33 3007.9 1638.29 3008.77 1642.45 3009.59 1646.93 3010 1651.48 3010 1656.03L3010 1715.96C3010 1720.52 3009.59 1725.07 3008.77 1729.55 3007.91 1733.73 3006.24 1737.7 3003.82 1741.24 3001.34 1744.62 2998.03 1747.33 2994.22 1749.12 2989.28 1751.18 2983.94 1752.15 2978.57 1751.97L2978.57 1751.97C2973.19 1752.19 2967.84 1751.17 2962.92 1748.98 2959.01 1747.29 2955.63 1744.56 2953.18 1741.1 2950.75 1737.64 2949.11 1733.7 2948.37 1729.55 2947.51 1725.07 2947.05 1720.52 2947 1715.96L2947 1655.9C2947.05 1651.34 2947.51 1646.79 2948.37 1642.31 2949.13 1638.14 2950.82 1634.2 2953.31 1630.76 2955.76 1627.34 2959.08 1624.62 2962.92 1622.88 2967.86 1620.82 2973.2 1619.84 2978.57 1620.02ZM2978.57 1733.08 2978.57 1733.08C2980.61 1733.1 2982.62 1732.54 2984.33 1731.45 2985.71 1730.5 2986.83 1729.24 2987.63 1727.78 2988.37 1726.05 2988.88 1724.22 2989.14 1722.35 2989.14 1720.31 2989.14 1718.27 2989.14 1716.1L2989.14 1656.31C2989.14 1654.13 2989.14 1652.09 2989.14 1650.06 2989.03 1648.16 2988.51 1646.31 2987.63 1644.62 2986.96 1643.04 2985.8 1641.71 2984.33 1640.81 2982.51 1639.74 2980.41 1639.22 2978.29 1639.32L2978.29 1639.32C2976.26 1639.22 2974.25 1639.74 2972.53 1640.81 2971.09 1641.75 2969.95 1643.07 2969.23 1644.62 2968.45 1646.29 2967.99 1648.08 2967.86 1649.92 2967.73 1652.05 2967.73 1654.18 2967.86 1656.31L2967.86 1716.1C2967.86 1718.13 2967.86 1720.17 2967.86 1722.21 2968.04 1724.1 2968.55 1725.94 2969.37 1727.65 2970.09 1729.2 2971.23 1730.52 2972.67 1731.45 2974.46 1732.44 2976.52 1732.87 2978.57 1732.67Z" fill="#F1C236" fill-rule="evenodd"/><path d="M3139.58 1674.56C3139.75 1679.76 3139.03 1684.96 3137.43 1689.92 3136.23 1693.74 3134.06 1697.18 3131.12 1699.89 3128.31 1702.39 3124.95 1704.19 3121.31 1705.14 3116.91 1706.17 3112.41 1706.67 3107.88 1706.62L3098.88 1706.62 3098.88 1750 3079 1750 3079 1622.02 3108.28 1622.02C3112.81 1621.9 3117.34 1622.44 3121.72 1623.63 3125.36 1624.56 3128.73 1626.36 3131.52 1628.89 3134.36 1631.52 3136.52 1634.8 3137.83 1638.45 3139.41 1643.23 3140.13 1648.24 3139.98 1653.27ZM3119.7 1653.94C3119.93 1650.77 3119.01 1647.62 3117.15 1645.05 3114.94 1642.78 3111.83 1641.64 3108.69 1641.95L3099.15 1641.95 3099.15 1686.68 3107.88 1686.68C3111.21 1687.05 3114.53 1685.97 3117.01 1683.72 3119.07 1680.87 3120.02 1677.38 3119.7 1673.88Z" fill="#F1C236" fill-rule="evenodd"/><path d="M3226.04 1656.45 3228.08 1751 3208 1751 3208 1622 3234.04 1622 3251 1699.94 3268.09 1622 3294 1622 3294 1750.33 3273.79 1750.33 3275.82 1657.66 3259.68 1750.33 3242.32 1750.33Z" fill="#F1C236" fill-rule="evenodd"/><path d="M3365 1750 3365 1622 3419.59 1622 3419.59 1641.27 3385.33 1641.27 3385.33 1675.22 3414.13 1675.22 3414.13 1694.49 3385.33 1694.49 3385.33 1730.73 3420 1730.73 3420 1750Z" fill="#F1C236" fill-rule="evenodd"/><path d="M3488 1750 3488 1622 3512.89 1622 3535.76 1704.19 3535.09 1622 3555 1622 3555 1750 3531.73 1750 3507.37 1665.79 3508.18 1750Z" fill="#F1C236" fill-rule="evenodd"/><path d="M3656.09 1641.27 3656.09 1750 3635.82 1750 3635.82 1641.27 3615 1641.27 3615 1622 3678 1622 3678 1641.27Z" fill="#F1C236" fill-rule="evenodd"/></g></svg>